# xmcd CD database file
#
# Track frame offsets:
#	150
#	21042
#	45327
#
# Disc length: 921 seconds
#
# Revision: 0
# Processed by: cddbd v1.5PL3 Copyright (c) Steve Scherf et al.
# Submitted via: CDex 1.51
#
DISCID=16039703
DTITLE=AIR - 6453 [Sg.]
DYEAR=1999
DGENRE=Rock
TTITLE0=6453
TTITLE1=6453 (Saturdaynight Version)
TTITLE2=6453 (Remixed By ZAK)
EXTD=YEAR: 1999
EXTT0=
EXTT1=
EXTT2=
PLAYORDER=
